<svg width="26" height="25" viewBox="0 0 26 25" fill="none" xmlns="http://www.w3.org/2000/svg">
<path fill-rule="evenodd" clip-rule="evenodd" d="M13.868 14.7346C12.2982 14.7346 11.0248 13.4652 11.0248 11.8986C11.0248 11.1048 11.3506 10.3893 11.8774 9.87376C12.073 9.68236 12.076 9.36904 11.8841 9.17394C11.6922 8.97884 11.3781 8.97584 11.1825 9.16724C10.4736 9.86101 10.0326 10.828 10.0326 11.8986C10.0326 14.012 11.7504 15.7243 13.868 15.7243C14.9403 15.7243 15.9107 15.2845 16.6062 14.5773C16.7981 14.3822 16.7951 14.0689 16.5995 13.8775C16.4039 13.6861 16.0898 13.6891 15.8979 13.8842C15.3812 14.4096 14.6629 14.7346 13.868 14.7346Z" fill="#677185"/>
<path fill-rule="evenodd" clip-rule="evenodd" d="M6.00186 15.9957C7.59636 17.9489 10.128 19.9551 13.7821 19.9551C16.2603 19.9551 18.2329 19.0298 19.7459 17.8224C19.9576 17.6535 19.9908 17.3467 19.8203 17.1372C19.6497 16.9276 19.3398 16.8946 19.1282 17.0635C17.7541 18.16 15.9932 18.9804 13.7821 18.9804C10.5355 18.9804 8.25746 17.2082 6.76743 15.383C6.02349 14.4717 5.48588 13.558 5.13433 12.8713C4.95885 12.5286 4.83053 12.244 4.74665 12.0466C4.72578 11.9975 4.70768 11.9538 4.6923 11.9161C4.72985 11.8285 4.78268 11.7093 4.85109 11.564C5.00817 11.2304 5.24678 10.7605 5.57039 10.2215C6.21975 9.14001 7.20063 7.79839 8.53622 6.71726C8.74668 6.5469 8.77781 6.23986 8.60576 6.03147C8.43371 5.82308 8.12362 5.79225 7.91317 5.96262C6.45842 7.14019 5.4083 8.58409 4.72424 9.72341C4.38114 10.2948 4.12744 10.7942 3.95888 11.1522C3.87455 11.3313 3.81138 11.4754 3.76887 11.5758C3.74761 11.626 3.7315 11.6653 3.72048 11.6926C3.71497 11.7063 3.71073 11.717 3.70775 11.7246L3.70424 11.7336L3.70319 11.7363L3.70284 11.7372L3.70271 11.7375C3.70266 11.7376 3.70261 11.7378 4.16269 11.911C3.69903 12.0745 3.6991 12.0747 3.69919 12.075L3.69941 12.0756L3.70005 12.0773L3.70208 12.0829C3.70378 12.0875 3.70615 12.0939 3.7092 12.1021C3.71531 12.1184 3.72416 12.1417 3.73578 12.1715C3.75903 12.231 3.79342 12.3167 3.83932 12.4247C3.93108 12.6406 4.06907 12.9464 4.2563 13.3121C4.63016 14.0423 5.20352 15.0178 6.00186 15.9957ZM4.16269 11.911L3.69903 12.0745C3.65978 11.9654 3.66105 11.846 3.70261 11.7378L4.16269 11.911Z" fill="#677185"/>
<path fill-rule="evenodd" clip-rule="evenodd" d="M20.3791 16.3067C20.58 16.4841 20.8886 16.4673 21.0684 16.2691C22.0125 15.2285 22.69 14.1449 23.1311 13.3237C23.3521 12.9123 23.5149 12.5647 23.6231 12.3183C23.6772 12.1951 23.7177 12.097 23.745 12.0288C23.7587 11.9946 23.769 11.9679 23.7762 11.9493C23.7798 11.94 23.7825 11.9326 23.7845 11.9274L23.7869 11.9211L23.7876 11.9191L23.7878 11.9184L23.7879 11.9182C23.788 11.9181 23.788 11.918 23.3291 11.7538C23.7854 11.5828 23.7853 11.5826 23.7853 11.5824L23.7844 11.5801L23.7822 11.5746C23.7805 11.5701 23.778 11.5638 23.7747 11.5557C23.7683 11.5396 23.759 11.5165 23.7467 11.4869C23.7222 11.4278 23.686 11.3427 23.6379 11.2353C23.5417 11.0206 23.3977 10.7164 23.204 10.3525C22.8172 9.62586 22.2292 8.65504 21.4244 7.68182C19.8195 5.74117 17.3039 3.73718 13.767 3.73718C12.1717 3.73718 10.7789 4.14681 9.58397 4.77658C9.34618 4.90191 9.25637 5.19372 9.38338 5.42837C9.51039 5.66301 9.80612 5.75163 10.0439 5.6263C11.1122 5.0633 12.3482 4.70051 13.767 4.70051C16.8917 4.70051 19.1572 6.46401 20.668 8.29086C21.421 9.20138 21.9744 10.1143 22.3397 10.8005C22.522 11.143 22.6566 11.4275 22.745 11.6248C22.7674 11.6748 22.7868 11.7192 22.8033 11.7574C22.7827 11.8069 22.7574 11.8666 22.7272 11.9354C22.6278 12.1618 22.476 12.4863 22.2685 12.8725C21.8528 13.6465 21.218 14.6599 20.341 15.6265C20.1612 15.8247 20.1782 16.1292 20.3791 16.3067ZM23.3291 11.7538L23.7854 11.5828C23.8269 11.6906 23.8278 11.8095 23.788 11.918L23.3291 11.7538Z" fill="#677185"/>
<path fill-rule="evenodd" clip-rule="evenodd" d="M16.8668 12.8968C17.1206 12.9427 17.361 12.7589 17.4037 12.4863C17.4365 12.2772 17.4551 12.061 17.4551 11.838C17.4551 9.7012 15.8426 7.96794 13.8525 7.96794C13.6449 7.96794 13.4436 7.98794 13.249 8.02312C12.9952 8.06901 12.824 8.32723 12.8668 8.59986C12.9095 8.87249 13.1499 9.0563 13.4037 9.01042C13.5514 8.98371 13.7008 8.96912 13.8525 8.96912C15.3277 8.96912 16.5231 10.254 16.5231 11.838C16.5231 12.0009 16.5095 12.1614 16.4847 12.3201C16.4419 12.5927 16.613 12.8509 16.8668 12.8968Z" fill="#677185"/>
<path fill-rule="evenodd" clip-rule="evenodd" d="M10.0326 11.8986C10.0326 14.0119 11.7494 15.7243 13.868 15.7243C14.9413 15.7243 15.9107 15.2845 16.6062 14.5773C16.7981 14.3822 16.7951 14.0689 16.5995 13.8775C16.4039 13.6861 16.0898 13.6891 15.8979 13.8842C15.3811 14.4097 14.6638 14.7346 13.868 14.7346C12.2974 14.7346 11.0248 13.4653 11.0248 11.8986C11.0248 11.1056 11.3507 10.3892 11.8774 9.87376C12.073 9.68236 12.076 9.36904 11.8841 9.17394C11.6922 8.97884 11.3781 8.97584 11.1825 9.16724C10.4735 9.86106 10.0326 10.829 10.0326 11.8986Z" fill="#677185"/>
<path fill-rule="evenodd" clip-rule="evenodd" d="M22.2619 20.1665C22.4506 19.9783 22.4506 19.6732 22.2619 19.485L6.26254 3.52577C6.07385 3.33756 5.76794 3.33756 5.57926 3.52577C5.39057 3.71398 5.39057 4.01913 5.57926 4.20734L21.5786 20.1665C21.7673 20.3547 22.0732 20.3547 22.2619 20.1665Z" fill="#677185"/>
</svg>
