<svg width="237" height="86" viewBox="0 0 237 86" fill="none" xmlns="http://www.w3.org/2000/svg">
<path fill-rule="evenodd" clip-rule="evenodd" d="M65.6679 12.7884C65.5182 11.7811 64.6677 11.0263 63.6531 11.0133C59.4725 10.9584 53.388 10.322 46.6617 7.59859C41.4435 5.48571 37.45 2.76955 34.6423 0.482038C34.248 0.160198 33.7674 0 33.2867 0C32.806 0 32.3239 0.160198 31.9311 0.482038C29.1219 2.76955 25.1284 5.48571 19.9117 7.59859C13.1854 10.322 7.09942 10.9584 2.92028 11.0133C1.90427 11.0263 1.05377 11.7811 0.905538 12.7884C-0.396846 21.6311 -2.87642 48.9586 15.131 70.6258C20.4399 77.0135 26.3243 81.4586 31.5022 84.5457C32.052 84.8733 32.6693 85.0379 33.2853 85.0379C33.9026 85.0379 34.5186 84.8733 35.0683 84.5457C40.2476 81.4601 46.1307 77.015 51.4395 70.6258C69.4484 48.9586 66.9702 21.6311 65.6679 12.7884ZM48.1238 67.8533C43.9907 72.8281 38.9999 77.1044 33.2853 80.5696C27.5692 77.1015 22.5784 72.8253 18.4467 67.8533C3.07138 49.3541 3.60241 26.1253 4.92638 15.2809C10.6482 14.9908 16.2247 13.7597 21.5278 11.6137C25.7228 9.91497 29.6702 7.66643 33.2867 4.91852C36.9017 7.66643 40.8492 9.91497 45.0456 11.6137C50.3487 13.7597 55.9237 14.9908 61.647 15.2809C62.9695 26.1253 63.5006 49.3541 48.1238 67.8533ZM37.0537 17.3187L22.0662 41.9959H30.1291L28.4413 60.6156L43.4288 35.9389H35.3654L37.0537 17.3187Z" fill="black"/>
<path d="M83.2163 4.67348H79.8876V80.7845H83.2163V4.67348Z" fill="black"/>
<path d="M104.549 53.8292C103.569 53.8292 102.844 53.811 102.372 53.7746L100.033 61.687C99.162 61.9053 97.9468 62.0144 96.387 62.0144C94.6458 62.0144 93.2311 61.8143 92.1428 61.4142L91.8708 60.9776L103.841 24.3625C105.256 24.1442 106.907 24.035 108.793 24.035C110.933 24.035 112.638 24.1624 113.908 24.417L125.661 61.0868C124.391 61.778 122.958 62.1236 121.362 62.1236C119.476 62.1236 118.152 61.7962 117.39 61.1413C116.628 60.4865 115.975 59.2315 115.431 57.3761L114.397 53.7746C113.926 53.811 113.218 53.8292 112.275 53.8292H104.549V53.8292ZM104.386 46.9536L106.562 46.8991H110.534C110.715 46.8991 111.033 46.9082 111.486 46.9264C111.94 46.9445 112.275 46.9536 112.493 46.9536L111.568 43.5704C110.697 40.5146 109.7 36.7676 108.575 32.3294H108.249C107.959 33.8937 107.088 37.3678 105.637 42.7519L104.386 46.9536ZM156.893 35.8763C156.893 37.0768 156.712 38.2137 156.349 39.2868C155.986 40.36 155.506 41.324 154.907 42.1789C154.309 43.0338 153.601 43.7796 152.785 44.4162C151.969 45.0528 151.125 45.5349 150.255 45.8623C152.141 46.5535 153.538 48.2269 154.445 50.8825L156.077 55.5208C156.694 57.3398 157.6 58.6858 158.797 59.5589C158.253 60.2864 157.437 60.8958 156.349 61.3869C155.261 61.878 154.064 62.1236 152.758 62.1236C151.452 62.1236 150.436 61.7507 149.711 61.0049C148.985 60.2592 148.314 58.9586 147.697 57.1033L145.739 51.3737C145.34 50.2823 144.805 49.4456 144.133 48.8635C143.462 48.2815 142.456 47.9904 141.114 47.9904H138.883V61.6324C137.722 61.8507 136.271 61.9599 134.53 61.9599C132.789 61.9599 131.356 61.8507 130.231 61.6324V24.6353L130.612 24.2533C133.768 24.1806 136.425 24.126 138.583 24.0896C140.742 24.0532 142.438 24.035 143.671 24.035C145.666 24.035 147.48 24.2806 149.112 24.7717C150.745 25.2628 152.132 25.9995 153.275 26.9817C154.417 27.964 155.306 29.2008 155.941 30.6924C156.576 32.1839 156.893 33.9119 156.893 35.8763V35.8763ZM138.883 30.5832V41.2786C140.515 41.2786 141.912 41.2513 143.072 41.1967C144.233 41.1421 145.167 40.9239 145.875 40.5419C146.582 40.1599 147.117 39.6233 147.48 38.9321C147.843 38.2409 148.024 37.2405 148.024 35.9309C148.024 32.4022 146.319 30.6378 142.909 30.6378H140.651C140.651 30.6378 140.062 30.6196 138.883 30.5832V30.5832ZM172.237 50.6097L172.183 54.5386V54.5932C173.851 54.5204 175.194 54.484 176.209 54.484H188.833C188.833 55.83 188.778 56.8668 188.67 57.5944C188.234 60.3956 186.384 61.7962 183.12 61.7962H168.646C167.086 61.7962 165.862 61.3414 164.973 60.432C164.085 59.5225 163.64 58.2856 163.64 56.7213V24.7444L164.021 24.3625H187.473C187.69 25.4174 187.799 26.5634 187.799 27.8002C187.799 29.0371 187.545 30.3286 187.037 31.6746H172.183L172.237 35.6035V39.4232C173.18 39.3869 174.414 39.3687 175.937 39.3687H184.262C184.589 40.3873 184.752 41.5514 184.752 42.861C184.752 44.1707 184.589 45.3712 184.262 46.4625H172.237V50.6097V50.6097ZM203.905 53.8292C202.926 53.8292 202.2 53.811 201.729 53.7746L199.389 61.687C198.518 61.9053 197.303 62.0144 195.743 62.0144C194.002 62.0144 192.587 61.8143 191.499 61.4142L191.227 60.9776L203.198 24.3625C204.612 24.1442 206.263 24.035 208.149 24.035C210.289 24.035 211.994 24.1624 213.264 24.417L225.017 61.0868C223.747 61.778 222.314 62.1236 220.718 62.1236C218.832 62.1236 217.508 61.7962 216.746 61.1413C215.984 60.4865 215.332 59.2315 214.787 57.3761L213.754 53.7746C213.282 53.811 212.575 53.8292 211.632 53.8292H203.905ZM203.742 46.9536L205.918 46.8991H209.89C210.072 46.8991 210.389 46.9082 210.843 46.9264C211.296 46.9445 211.632 46.9536 211.849 46.9536L210.924 43.5704C210.054 40.5146 209.056 36.7676 207.931 32.3294H207.605C207.315 33.8937 206.444 37.3678 204.993 42.7519L203.742 46.9536Z" fill="black"/>
</svg>
